<svg xmlns="http://www.w3.org/2000/svg" width="48" height="48" id="plane"><g fill="#fff" fill-rule="evenodd" transform="translate(8 -1012.362)"><circle cx="16" cy="1036.362" r="24" fill="#239fdb"></circle><path style="line-height:normal;text-indent:0;text-align:start;text-decoration-line:none;text-decoration-style:solid;text-decoration-color:#000;text-transform:none;block-progression:tb;isolation:auto;mix-blend-mode:normal" fill="#0b5ecd" d="M30.564 47.078a24 24 0 0 0 2.133-.709 24 24 0 0 0 2.19-.98 24 24 0 0 0 2.08-1.194 24 24 0 0 0 1.951-1.394 24 24 0 0 0 1.803-1.584 24 24 0 0 0 1.634-1.756 24 24 0 0 0 1.454-1.91 24 24 0 0 0 1.254-2.045 24 24 0 0 0 1.042-2.16 24 24 0 0 0 .823-2.254 24 24 0 0 0 .593-2.324 24 24 0 0 0 .36-2.372 24 24 0 0 0 .004-.06l-7.832-7.832a.5.5 0 0 0-.504-.504H8.445a.5.5 0 0 0-.252.932l6.637 6.636-.533 5.243a.5.5 0 0 0 .545.544l15.722 15.723z" color="#000" font-family="sans-serif" font-weight="400" transform="translate(-8 1012.362)"></path><path style="line-height:normal;text-indent:0;text-align:start;text-decoration-line:none;text-decoration-style:solid;text-decoration-color:#000;text-transform:none;block-progression:tb;isolation:auto;mix-blend-mode:normal" d="M.446 1030.362a.5.5 0 0 0-.252.932l6.9 4.047-.796 7.832a.5.5 0 0 0 .72.496l.82-.408h.01l7.329-3.657 1.074 4.206a.5.5 0 0 0 .814.253c4.919-4.282 9.925-8.507 14.815-12.822a.5.5 0 0 0-.33-.879H.446zm1.84 1H26.03l-18.209 3.248-5.535-3.248zm27.533.338c-4.234 3.708-8.536 7.372-12.799 11.074l-2.142-8.408 14.941-2.666zm-16.476 2.94-.73.98-5.221 6.672.683-6.711 5.268-.941zm.746.675.836 3.285-5.092 2.543-.447.223 4.021-5.14a.5.5 0 0 0 .006-.01l.676-.905z" color="#000" font-family="sans-serif" font-weight="400" overflow="visible"></path></g></svg>